<svg xmlns:xlink="http://www.w3.org/1999/xlink">
	<defs>
		<symbol id="fastsell" viewBox="0 0 32 32">
			<title>
				fastsell
			</title>
			<path fill="#ff7222" style="fill: var(--color1, #ff7222)" d="M29.046 16.065c0.226 0.229 0.327 0.552 0.273 0.868l-0.679 4.136c-0.070 0.419-0.399 0.746-0.818 0.816-0.053 0.004-0.106 0.004-0.158 0-0.277 0-0.544-0.108-0.742-0.302l-0.78-0.778-5.22 5.219c-0.245 0.245-0.579 0.383-0.926 0.383s-0.68-0.138-0.926-0.383l-2.648-2.642-5.591 5.57c-0.511 0.51-1.34 0.51-1.852 0s-0.511-1.337 0-1.847l6.51-6.492c0.245-0.245 0.579-0.383 0.926-0.383s0.68 0.138 0.926 0.383l2.648 2.642 4.303-4.294-0.788-0.781c-0.213-0.206-0.326-0.494-0.308-0.789 0.032-0.462 0.377-0.841 0.834-0.917l4.145-0.683c0.054-0.009 0.109-0.014 0.164-0.014 0.264-0.001 0.518 0.103 0.706 0.288zM7.92 23.773l0.982-0.969 0.946-0.944c0.436-0.419 0.484-1.099 0.112-1.575-0.206-0.25-0.508-0.402-0.832-0.418s-0.64 0.105-0.87 0.334l-0.993 0.971c-1.142-1.44-1.858-3.169-2.067-4.993h1.462c0.636 0 1.151-0.514 1.151-1.148s-0.515-1.148-1.151-1.148h-1.448c0.205-1.823 0.916-3.552 2.054-4.993l0.982 0.98c0.23 0.229 0.546 0.35 0.87 0.334s0.626-0.168 0.832-0.418c0.37-0.476 0.322-1.154-0.112-1.573l-0.935-0.944c1.443-1.139 3.176-1.854 5.004-2.062v1.385c0 0.634 0.515 1.148 1.151 1.148s1.151-0.514 1.151-1.148v-1.385l0.382 0.052c2.062 0.339 3.962 1.323 5.427 2.811l0.044 0.044c1.305 1.276 2.226 2.89 2.659 4.661l0.014 0.060c0.139 0.642 0.756 1.065 1.407 0.963 0.342-0.065 0.643-0.267 0.832-0.559s0.249-0.649 0.167-0.986c-1.185-5.116-5.479-8.928-10.71-9.507s-10.258 2.201-12.538 6.933c-2.28 4.733-1.316 10.386 2.404 14.1 0.45 0.446 1.177 0.445 1.625-0.003zM20.784 9.352c-0.395-0.399-1.029-0.433-1.464-0.079l-3.873 3.094c-1.118-0.152-2.212 0.404-2.747 1.394s-0.398 2.209 0.345 3.056c0.742 0.847 1.933 1.147 2.989 0.751s1.755-1.404 1.754-2.529c-0.001-0.122-0.010-0.244-0.027-0.365l3.104-3.842c0.359-0.437 0.323-1.075-0.082-1.469l0.003-0.011z">
			</path>
		</symbol>
		<symbol id="delivery" viewBox="0 0 32 32">
			<title>
				delivery
			</title>
			<path fill="#597a9e" style="fill: var(--color2, #597a9e)" d="M2.667 10v-2.667c0-1.105 0.895-2 2-2h10.667c1.105 0 2 0.895 2 2v0.667h5.457c0.659 0 1.276 0.325 1.649 0.868l4.192 6.109c0.457 0.666 0.702 1.455 0.702 2.263v4.759c0 0.947-0.659 1.741-1.543 1.948-0.534 1.581-2.029 2.719-3.791 2.719-1.742 0-3.223-1.113-3.772-2.667h-8.455c-0.549 1.554-2.031 2.667-3.772 2.667-1.761 0-3.257-1.138-3.791-2.719-0.884-0.207-1.543-1-1.543-1.948v-12zM20.4 10.667c-0.221 0-0.4 0.179-0.4 0.4v4.533c0 0.221 0.179 0.4 0.4 0.4h5.189c0.132 0 0.26-0.043 0.365-0.124 0.263-0.201 0.313-0.578 0.112-0.841l-3.104-4.055c-0.151-0.198-0.386-0.314-0.635-0.314h-1.926zM8 24.667c1.105 0 2-0.895 2-2s-0.895-2-2-2c-1.105 0-2 0.895-2 2s0.895 2 2 2zM24 24.667c1.105 0 2-0.895 2-2s-0.895-2-2-2c-1.105 0-2 0.895-2 2s0.895 2 2 2z">
			</path>
		</symbol>
		<symbol id="like_fill" viewBox="0 0 32 32">
			<title>
				like_fill
			</title>
			<path fill="#f75059" stroke="#f75059" stroke-width="1.3333" stroke-miterlimit="4" stroke-linecap="butt" stroke-linejoin="miter" style="fill: var(--color3, #f75059)" d="M16 7.067c1.415-1.267 3.284-2.4 5.333-2.4 4.418 0 7.333 2.915 7.333 7.333 0 6.448-6.008 11.552-12.101 15.2-0.31 0.193-0.818 0.193-1.128 0-6.133-3.636-12.104-8.751-12.104-15.2 0-4.418 2.915-7.333 7.333-7.333 2.049 0 3.918 1.133 5.333 2.4z">
			</path>
		</symbol>
		<symbol id="like" viewBox="0 0 32 32">
			<title>
				like
			</title>
			<path stroke-width="1.3333" stroke-miterlimit="4" stroke-linecap="butt" stroke-linejoin="miter" d="M16 7.067c1.415-1.267 3.284-2.4 5.333-2.4 4.418 0 7.333 2.915 7.333 7.333 0 6.448-6.008 11.552-12.101 15.2-0.31 0.193-0.818 0.193-1.128 0-6.133-3.636-12.104-8.751-12.104-15.2 0-4.418 2.915-7.333 7.333-7.333 2.049 0 3.918 1.133 5.333 2.4z">
			</path>
		</symbol>
		<symbol id="new_window" viewBox="0 0 32 32">
			<title>
				new_window
			</title>
			<path stroke-width="1.3333" stroke-miterlimit="4" stroke-linecap="butt" stroke-linejoin="miter" d="M27.333 18.677v4.069c0 1.595-0.166 2.174-0.478 2.757s-0.77 1.041-1.353 1.353c-0.583 0.312-1.162 0.478-2.757 0.478h-13.491c-1.595 0-2.174-0.166-2.757-0.478s-1.041-0.77-1.353-1.353c-0.312-0.583-0.478-1.162-0.478-2.757v-13.491c0-1.595 0.166-2.174 0.478-2.757s0.77-1.041 1.353-1.353c0.583-0.312 1.162-0.478 2.757-0.478h4.070">
			</path>
			<path stroke-width="1.3333" stroke-miterlimit="4" stroke-linecap="square" stroke-linejoin="miter" d="M18 4.667h9.333">
			</path>
			<path stroke-width="1.3333" stroke-miterlimit="4" stroke-linecap="square" stroke-linejoin="miter" d="M27.333 4.667v9.333">
			</path>
			<path stroke-width="1.3333" stroke-miterlimit="4" stroke-linecap="square" stroke-linejoin="miter" d="M18.667 13.168l7.835-7.835">
			</path>
		</symbol>
		<symbol id="verified" viewBox="0 0 29 32">
			<title>
				verified
			</title>
			<path fill="#6ca232" style="fill: var(--color4, #6ca232)" d="M28.8 3.2l-14.4-3.2-14.4 3.2v15.209c0.001 5.441 3.58 10.251 8.838 11.876l5.562 1.716 5.562-1.716c5.258-1.625 8.837-6.434 8.838-11.876v-15.209z">
			</path>
			<path fill="#fff" style="fill: var(--color5, #fff)" d="M8.251 13.010l-2.491 2.779 5.466 5.445c0.698 0.702 1.793 0.702 2.491 0l10.282-10.135-2.491-2.779-9.037 8.882-4.221-4.192z">
			</path>
		</symbol>
	</defs>
</svg>
